<svg width="123" height="120" viewBox="0 0 123 120" fill="none" xmlns="http://www.w3.org/2000/svg">
<path d="M121.172 60C121.172 92.5682 94.2949 119 61.1034 119C27.9119 119 1.03516 92.5682 1.03516 60C1.03516 27.4318 27.9119 1 61.1034 1C94.2949 1 121.172 27.4318 121.172 60Z" fill="white" stroke="#E0B543" stroke-width="2"/>
<path d="M72.094 59.5701V55.4709C72.094 52.0748 68.8134 49.3223 64.7658 49.3223H57.4376C53.39 49.3223 50.1094 52.0748 50.1094 55.4709V59.5701H72.094Z" fill="#F5B953"/>
<path d="M64.7658 49.3223H57.4376C53.39 49.3223 50.1094 52.0751 50.1094 55.4715V56.1089C51.6581 56.358 53.2959 56.4963 54.9948 56.4963C61.6757 56.4963 67.4467 54.4251 70.2595 51.412C68.9172 50.1329 66.9569 49.3223 64.7658 49.3223Z" fill="#F9D18B"/>
<path d="M57.4375 49.3223V50.3471C57.4375 52.0453 59.0778 53.4216 61.1016 53.4216C63.1254 53.4216 64.7656 52.0453 64.7656 50.3471V49.3223" fill="#DB9B7C"/>
<path d="M61.1029 37.0254C57.7307 37.0254 54.9961 39.3199 54.9961 42.1493V44.1989C54.9961 47.0283 57.7307 49.3228 61.1029 49.3228C64.4751 49.3228 67.2097 47.0283 67.2097 44.1989V42.1493C67.2097 39.3199 64.4751 37.0254 61.1029 37.0254Z" fill="#EFBE9A"/>
<path d="M53.7737 83.5505V79.4514C53.7737 76.0553 50.4931 73.3027 46.4455 73.3027H39.1173C35.0697 73.3027 31.7891 76.0553 31.7891 79.4514V83.5505H53.7737Z" fill="#669E4F"/>
<path d="M46.4454 73.3027H39.1172C35.0696 73.3027 31.7891 76.0552 31.7891 79.4513V80.0887C33.3377 80.3377 34.9756 80.4761 36.6745 80.4761C43.3554 80.4761 49.1263 78.405 51.9391 75.3922C50.5968 74.1133 48.6365 73.3027 46.4454 73.3027Z" fill="#78B75B"/>
<path d="M39.1172 73.3027V74.3275C39.1172 76.0254 40.7575 77.4016 42.7813 77.4016C44.805 77.4016 46.4453 76.0254 46.4453 74.3275V73.3027" fill="#DB9B7C"/>
<path d="M42.7807 61.0039C39.4085 61.0039 36.6738 63.2983 36.6738 66.1276V68.1771C36.6738 71.0064 39.4085 73.3008 42.7807 73.3008C46.1528 73.3008 48.8875 71.0064 48.8875 68.1771V66.1276C48.8875 63.2983 46.1528 61.0039 42.7807 61.0039Z" fill="#EFBE9A"/>
<path d="M91.4338 83.5505V79.4514C91.4338 76.0553 88.1532 73.3027 84.1056 73.3027H76.7774C72.7298 73.3027 69.4492 76.0553 69.4492 79.4514V83.5505H91.4338Z" fill="#2D4D83"/>
<path d="M84.1056 73.3027H76.7774C72.7298 73.3027 69.4492 76.0553 69.4492 79.4515V80.0889C70.9979 80.338 72.6358 80.4763 74.3347 80.4763C81.0156 80.4763 86.7865 78.4052 89.5993 75.3923C88.257 74.1134 86.2967 73.3027 84.1056 73.3027Z" fill="#4472B2"/>
<path d="M76.7773 73.3027V74.3275C76.7773 76.0254 78.4176 77.4016 80.4414 77.4016C82.4652 77.4016 84.1055 76.0254 84.1055 74.3275V73.3027" fill="#DB9B7C"/>
<path d="M80.4408 61.0039C77.0686 61.0039 74.334 63.2983 74.334 66.1277V68.1772C74.334 71.0066 77.0686 73.301 80.4408 73.301C83.813 73.301 86.5476 71.0066 86.5476 68.1772V66.1277C86.5476 63.2983 83.813 61.0039 80.4408 61.0039Z" fill="#EFBE9A"/>
<path d="M53.7743 84.5747H31.7897C31.1155 84.5747 30.5684 84.1166 30.5684 83.5499V79.4508C30.5684 75.4962 34.4034 72.2773 39.1179 72.2773H46.4461C51.1606 72.2773 54.9957 75.4962 54.9957 79.4508V83.5499C54.9957 84.1166 54.4485 84.5747 53.7743 84.5747ZM33.0111 82.5251H52.5529V79.4508C52.5529 76.6255 49.8134 74.3269 46.4461 74.3269H39.1179C35.7506 74.3269 33.0111 76.6255 33.0111 79.4508V82.5251Z" fill="black"/>
<path d="M42.782 78.4268C40.0876 78.4268 37.8965 76.5883 37.8965 74.3275V73.3027H40.3392V74.3275C40.3392 75.4579 41.4348 76.3771 42.782 76.3771C44.1292 76.3771 45.2248 75.4579 45.2248 74.3275V73.3027H47.6675V74.3275C47.6675 76.5883 45.4764 78.4268 42.782 78.4268Z" fill="black"/>
<path d="M35.4531 78.4258H37.8958V83.5496H35.4531V78.4258Z" fill="black"/>
<path d="M47.666 78.4258H50.1086V83.5496H47.666V78.4258Z" fill="black"/>
<path d="M42.7813 74.3274C38.7398 74.3274 35.4531 71.5697 35.4531 68.1787V66.1292C35.4531 62.7382 38.7398 59.9805 42.7813 59.9805C46.8227 59.9805 50.1094 62.7382 50.1094 66.1292V68.1787C50.1094 71.5697 46.8227 74.3274 42.7813 74.3274ZM42.7813 62.03C40.087 62.03 37.8958 63.8685 37.8958 66.1292V68.1787C37.8958 70.4394 40.087 72.2778 42.7813 72.2778C45.4756 72.2778 47.6667 70.4394 47.6667 68.1787V66.1292C47.6667 63.8685 45.4756 62.03 42.7813 62.03Z" fill="black"/>
<path d="M91.4325 84.5752H69.4479C68.7737 84.5752 68.2266 84.1171 68.2266 83.5504V79.4511C68.2266 75.4963 72.0616 72.2773 76.7761 72.2773H84.1043C88.8188 72.2773 92.6539 75.4963 92.6539 79.4511V83.5504C92.6539 84.1171 92.1067 84.5752 91.4325 84.5752ZM70.6693 82.5256H90.2111V79.4511C90.2111 76.6257 87.4716 74.327 84.1043 74.327H76.7761C73.4088 74.327 70.6693 76.6257 70.6693 79.4511V82.5256Z" fill="black"/>
<path d="M80.4401 78.4268C77.7458 78.4268 75.5547 76.5883 75.5547 74.3275V73.3027H77.9974V74.3275C77.9974 75.4579 79.093 76.3771 80.4401 76.3771C81.7873 76.3771 82.8829 75.4579 82.8829 74.3275V73.3027H85.3256V74.3275C85.3256 76.5883 83.1345 78.4268 80.4401 78.4268Z" fill="black"/>
<path d="M72.0938 78.4258H74.5364V83.5496H72.0938V78.4258Z" fill="black"/>
<path d="M85.3262 78.4258H87.7689V83.5496H85.3262V78.4258Z" fill="black"/>
<path d="M80.4395 74.3274C76.398 74.3274 73.1113 71.5697 73.1113 68.1787V66.1292C73.1113 62.7382 76.398 59.9805 80.4395 59.9805C84.481 59.9805 87.7677 62.7382 87.7677 66.1292V68.1787C87.7677 71.5697 84.481 74.3274 80.4395 74.3274ZM80.4395 62.03C77.7452 62.03 75.5541 63.8685 75.5541 66.1292V68.1787C75.5541 70.4394 77.7452 72.2778 80.4395 72.2778C83.1339 72.2778 85.325 70.4394 85.325 68.1787V66.1292C85.325 63.8685 83.1339 62.03 80.4395 62.03Z" fill="black"/>
<path d="M72.0946 60.594H50.11C49.4358 60.594 48.8887 60.1359 48.8887 59.5692V55.4702C48.8887 51.5156 52.7238 48.2969 57.4382 48.2969H64.7664C69.4809 48.2969 73.316 51.5156 73.316 55.4702V59.5692C73.316 60.1359 72.7688 60.594 72.0946 60.594ZM51.3314 58.5445H70.8732V55.4702C70.8732 52.6449 68.1337 50.3464 64.7664 50.3464H57.4382C54.0709 50.3464 51.3314 52.6449 51.3314 55.4702V58.5445Z" fill="black"/>
<path d="M61.1023 54.4465C58.4079 54.4465 56.2168 52.6079 56.2168 50.3471V49.3223H58.6596V50.3471C58.6596 51.4775 59.7551 52.3968 61.1023 52.3968C62.4495 52.3968 63.5451 51.4775 63.5451 50.3471V49.3223H65.9878V50.3471C65.9878 52.6079 63.7967 54.4465 61.1023 54.4465Z" fill="black"/>
<path d="M53.7734 54.4453H56.2161V59.5691H53.7734V54.4453Z" fill="black"/>
<path d="M65.9863 54.4453H68.429V59.5691H65.9863V54.4453Z" fill="black"/>
<path d="M61.1016 50.3469C57.0601 50.3469 53.7734 47.5892 53.7734 44.1982V42.1487C53.7734 38.7577 57.0601 36 61.1016 36C65.1431 36 68.4297 38.7577 68.4297 42.1487V44.1982C68.4297 47.5892 65.1431 50.3469 61.1016 50.3469ZM61.1016 38.0496C58.4073 38.0496 56.2162 39.888 56.2162 42.1487V44.1982C56.2162 46.4589 58.4073 48.2974 61.1016 48.2974C63.7959 48.2974 65.987 46.4589 65.987 44.1982V42.1487C65.987 39.888 63.7959 38.0496 61.1016 38.0496Z" fill="black"/>
</svg>
