<svg width="120" height="120" viewBox="0 0 120 120" fill="none" xmlns="http://www.w3.org/2000/svg">
<circle cx="60" cy="60" r="59" fill="white" stroke="#E0B543" stroke-width="2"/>
<path d="M39.6777 30.9677H76.4519V85.1613H39.6777V30.9677Z" fill="#A6A6A6"/>
<path d="M43.5488 34.8386H80.323V89.0321H43.5488V34.8386Z" fill="#F1F1F1"/>
<path d="M65.8073 79.3553L60.0009 85.1617V82.2585H57.0977L61.9364 77.4198" fill="#DC9635"/>
<path d="M67.7422 79.3553L73.5486 85.1617V82.2585H76.4519L71.6132 77.4198" fill="#DC9635"/>
<path d="M74.5171 71.6128C74.5171 75.8887 71.0511 79.3547 66.7751 79.3547C62.4992 79.3547 59.0332 75.8887 59.0332 71.6128C59.0332 67.3369 62.4992 63.8708 66.7751 63.8708C71.0511 63.8708 74.5171 67.3369 74.5171 71.6128Z" fill="#EE6F6B"/>
<path d="M70.6443 71.6127C70.6443 73.7504 68.911 75.4836 66.7733 75.4836C64.6356 75.4836 62.9023 73.7504 62.9023 71.6127C62.9023 69.4749 64.6356 67.7417 66.7733 67.7417C68.911 67.7417 70.6443 69.4749 70.6443 71.6127Z" fill="white"/>
<path d="M43.5477 86.129H39.6767C39.1428 86.129 38.709 85.6967 38.709 85.1613V30.9677C38.709 30.4324 39.1428 30 39.6767 30H76.4509C76.9849 30 77.4187 30.4324 77.4187 30.9677V34.8387H75.4832V31.9355H40.6445V84.1935H43.5477V86.129Z" fill="black"/>
<path d="M80.322 89.9999H43.5478C43.0139 89.9999 42.5801 89.5675 42.5801 89.0321V34.8386C42.5801 34.3032 43.0139 33.8708 43.5478 33.8708H80.322C80.856 33.8708 81.2898 34.3032 81.2898 34.8386V89.0321C81.2898 89.5675 80.856 89.9999 80.322 89.9999ZM44.5156 88.0644H79.3543V35.8063H44.5156V88.0644Z" fill="black"/>
<path d="M66.7741 80.3225C61.9723 80.3225 58.0645 76.4156 58.0645 71.6128C58.0645 66.81 61.9723 62.9031 66.7741 62.9031C71.576 62.9031 75.4838 66.81 75.4838 71.6128C75.4838 76.4156 71.576 80.3225 66.7741 80.3225ZM66.7741 64.8386C63.0388 64.8386 59.9999 67.8784 59.9999 71.6128C59.9999 75.3472 63.0388 78.387 66.7741 78.387C70.5095 78.387 73.5483 75.3472 73.5483 71.6128C73.5483 67.8784 70.5095 64.8386 66.7741 64.8386Z" fill="black"/>
<path d="M63.871 71.6127H61.9355C61.9355 68.9448 64.1063 66.774 66.7743 66.774V68.7095C65.1738 68.7095 63.871 70.0122 63.871 71.6127Z" fill="black"/>
<path d="M66.7734 76.4512V74.5157C68.3739 74.5157 69.6767 73.213 69.6767 71.6125H71.6121C71.6121 74.2804 69.4413 76.4512 66.7734 76.4512Z" fill="black"/>
<path d="M60.0001 86.1288C59.8753 86.1288 59.7496 86.1057 59.6296 86.0551C59.2686 85.9062 59.0323 85.5519 59.0323 85.1611V83.2256H57.0969C56.7061 83.2256 56.3526 82.9903 56.2028 82.6283C56.0526 82.2663 56.1357 81.8505 56.4126 81.5736L61.2513 76.7349L62.6198 78.1034L59.4331 81.2901H60.0001C60.534 81.2901 60.9678 81.7225 60.9678 82.2578V82.8249L65.1223 78.6704L66.4908 80.0388L60.6843 85.8453C60.4996 86.0301 60.2515 86.1288 60.0001 86.1288Z" fill="black"/>
<path d="M73.5493 86.1288C73.2979 86.1288 73.0498 86.0301 72.865 85.8453L67.0586 80.0388L68.427 78.6704L72.5815 82.8249V82.2578C72.5815 81.7225 73.0153 81.2901 73.5493 81.2901H74.1163L70.9296 78.1034L72.298 76.7349L77.1367 81.5736C77.4136 81.8505 77.4968 82.2663 77.3465 82.6283C77.1967 82.9903 76.8433 83.2256 76.4525 83.2256H74.517V85.1611C74.517 85.5519 74.2807 85.9062 73.9197 86.0551C73.7997 86.1057 73.674 86.1288 73.5493 86.1288Z" fill="black"/>
<path d="M47.4199 38.7094H76.4522V46.4513H47.4199V38.7094Z" fill="#A6A6A6"/>
<path d="M46.4512 49.3552H77.4189V51.2907H46.4512V49.3552Z" fill="black"/>
<path d="M46.4512 53.226H77.4189V55.1615H46.4512V53.226Z" fill="black"/>
<path d="M46.4512 57.0969H58.0641V59.0323H46.4512V57.0969Z" fill="black"/>
<path d="M46.4512 60.9677H58.0641V62.9032H46.4512V60.9677Z" fill="black"/>
<path d="M76.4512 47.4191H47.4189C46.885 47.4191 46.4512 46.9867 46.4512 46.4514V38.7094C46.4512 38.174 46.885 37.7417 47.4189 37.7417H76.4512C76.9851 37.7417 77.4189 38.174 77.4189 38.7094V46.4514C77.4189 46.9867 76.9851 47.4191 76.4512 47.4191ZM48.3867 45.4836H75.4834V39.6772H48.3867V45.4836Z" fill="black"/>
</svg>
