<svg width="60" height="48" viewBox="0 0 60 48" fill="none" xmlns="http://www.w3.org/2000/svg">
<path d="M54.6422 47.572C55.9909 47.572 57.1595 47.1267 58.153 46.2474L41.154 29.2477C40.7462 29.5398 40.3508 29.8238 39.9774 30.0938C38.7053 31.0311 37.6728 31.7625 36.88 32.2865C36.0873 32.8118 35.0326 33.3472 33.716 33.8939C32.3986 34.4411 31.1712 34.7139 30.0327 34.7139H29.9993H29.966C28.8273 34.7139 27.6 34.4413 26.2826 33.8939C24.9653 33.3472 23.9106 32.8118 23.1187 32.2865C22.326 31.7625 21.294 31.0312 20.0213 30.0938C19.6666 29.8338 19.2732 29.5485 18.8479 29.2432L1.8457 46.2474C2.83907 47.1267 4.00847 47.572 5.35706 47.572H54.6422Z" fill="#F8D065"/>
<path d="M3.38206 18.5452C2.11004 17.6971 0.982035 16.7259 0 15.6318V41.4955L14.9828 26.5126C11.9854 24.42 8.12339 21.7672 3.38206 18.5452Z" fill="#F8D065"/>
<path d="M56.652 18.5452C52.0915 21.6319 48.2155 24.2892 45.0234 26.5185L60.0002 41.496V15.6318C59.0399 16.7039 57.924 17.6744 56.652 18.5452Z" fill="#F8D065"/>
<path d="M54.6418 0.427246H5.3568C3.6374 0.427246 2.31549 1.00786 1.38945 2.16789C0.46264 3.32847 0 4.7799 0 6.52055C0 7.92655 0.613949 9.44999 1.8413 11.0913C3.06866 12.7319 4.37466 14.0206 5.75866 14.958C6.51738 15.4941 8.80542 17.0847 12.6228 19.7294C14.6835 21.1574 16.4755 22.4021 18.0155 23.4762C19.3282 24.3908 20.4602 25.1828 21.3949 25.8401C21.5022 25.9154 21.6709 26.0361 21.8949 26.1962C22.1361 26.3695 22.4415 26.5895 22.8182 26.8615C23.5436 27.3861 24.1462 27.8102 24.6262 28.1341C25.1055 28.4582 25.6862 28.8202 26.3675 29.2222C27.0482 29.6236 27.6902 29.9254 28.2928 30.1262C28.8956 30.3269 29.4535 30.4275 29.9668 30.4275H30.0002H30.0335C30.5467 30.4275 31.1047 30.3269 31.7076 30.1262C32.3101 29.9254 32.9516 29.6242 33.6329 29.2222C34.3135 28.8202 34.8935 28.4575 35.3743 28.1341C35.8542 27.8102 36.4569 27.3862 37.1824 26.8615C37.5583 26.5895 37.8636 26.3694 38.1049 26.1968C38.329 26.036 38.4976 25.916 38.6056 25.8401C39.3337 25.3335 40.4683 24.5447 41.9938 23.4854C44.7697 21.5567 48.8577 18.718 54.2752 14.958C55.9045 13.82 57.2658 12.4466 58.3598 10.84C59.4519 9.23332 59.9993 7.54801 59.9993 5.78459C59.9993 4.31127 59.4685 3.05058 58.4091 2.00057C57.3486 0.95187 56.0927 0.427246 54.6418 0.427246Z" fill="#F8D065"/>
</svg>
