<svg width="38" height="60" viewBox="0 0 38 60" fill="none" xmlns="http://www.w3.org/2000/svg">
<path d="M18.9993 0C8.55801 0 0.0625 9.53668 0.0625 21.2581C0.0625 30.738 12.9617 50.6709 18.4693 59.1825C18.6537 59.4678 18.8312 59.739 18.9981 60C19.165 59.7414 19.3389 59.4724 19.5222 59.1895C25.0333 50.6753 37.9383 30.738 37.9383 21.2593C37.9395 9.5357 29.4426 0 18.9993 0ZM18.9993 28.215C15.1626 28.215 12.0424 25.0936 12.0424 21.2581C12.0424 17.4226 15.1626 14.3012 18.9993 14.3012C22.8359 14.3012 25.9561 17.4214 25.9561 21.2581C25.9561 25.0936 22.8348 28.215 18.9993 28.215Z" fill="#F8D065"/>
</svg>
