<svg width="20" height="30" viewBox="0 0 20 30" fill="none" xmlns="http://www.w3.org/2000/svg">
<path d="M9.99963 0C4.779 0 0.53125 4.76834 0.53125 10.629C0.53125 15.369 6.98085 25.3354 9.73467 29.5912C9.82687 29.7339 9.91558 29.8695 9.99904 30C10.0825 29.8707 10.1695 29.7362 10.2611 29.5947C13.0166 25.3377 19.4692 15.369 19.4692 10.6296C19.4697 4.76785 15.2213 0 9.99963 0ZM9.99963 14.1075C8.08129 14.1075 6.52119 12.5468 6.52119 10.629C6.52119 8.7113 8.08129 7.15061 9.99963 7.15061C11.918 7.15061 13.4781 8.71072 13.4781 10.629C13.4781 12.5468 11.9174 14.1075 9.99963 14.1075Z" fill="#F8D065"/>
</svg>
