<svg width="123" height="120" viewBox="0 0 123 120" fill="none" xmlns="http://www.w3.org/2000/svg">
<path d="M121.137 60C121.137 92.5682 94.2598 119 61.0683 119C27.8768 119 1 92.5682 1 60C1 27.4318 27.8768 1 61.0683 1C94.2598 1 121.137 27.4318 121.137 60Z" fill="white" stroke="#E0B543" stroke-width="2"/>
<path d="M39.3007 77.8847V40.2972H43.1962L37.353 35.3945L31.5098 40.2972H35.4052V81.1532H84.0986V84.4216L89.9418 79.5189L84.0986 74.6162V77.8847H39.3007Z" fill="#444A53"/>
<path d="M89.9403 79.519L84.0971 74.6163V77.8848H39.2993V40.2973H43.1948L37.3516 35.3945V79.519H89.9403Z" fill="#666D77"/>
<path d="M43.1953 64.8125H49.0385V77.8862H43.1953V64.8125Z" fill="#5789D6"/>
<path d="M43.1953 64.8125H46.1169V77.8862H43.1953V64.8125Z" fill="#699CE6"/>
<path d="M52.9336 66.4473H58.7768V77.8872H52.9336V66.4473Z" fill="#98BE61"/>
<path d="M52.9336 66.4473H55.8552V77.8872H52.9336V66.4473Z" fill="#ABD176"/>
<path d="M62.6738 59.9082H68.517V77.885H62.6738V59.9082Z" fill="#CA5057"/>
<path d="M62.6738 59.9082H65.5954V77.885H62.6738V59.9082Z" fill="#DC6068"/>
<path d="M72.4102 53.3711H78.2533V77.8848H72.4102V53.3711Z" fill="#EEBC5A"/>
<path d="M72.4102 53.3711H75.3317V77.8848H72.4102V53.3711Z" fill="#F8CF6A"/>
<path d="M84.0977 85.2388C83.9722 85.2388 83.8457 85.2192 83.7249 85.1765C83.3616 85.0508 83.1238 84.7516 83.1238 84.4217V81.9703H35.4044C34.867 81.9703 34.4305 81.6048 34.4305 81.1532V41.1144H31.5089C31.1157 41.1144 30.76 40.9149 30.6092 40.6101C30.4585 40.3045 30.5422 39.9534 30.8204 39.7195L36.6636 34.8168C37.0445 34.4973 37.6603 34.4973 38.0407 34.8168L43.8839 39.7195C44.1625 39.9534 44.2462 40.3045 44.0955 40.6101C43.9443 40.9149 43.589 41.1144 43.1953 41.1144H40.2737V77.0676H83.1238V74.6162C83.1238 74.2863 83.3616 73.987 83.7249 73.8614C84.0891 73.7337 84.5081 73.8047 84.7862 74.0385L90.6294 78.9412C91.0103 79.2608 91.0103 79.7771 90.6294 80.0967L84.7862 84.9994C84.6003 85.1554 84.3511 85.2388 84.0977 85.2388ZM36.3783 80.3361H84.0977C84.6355 80.3361 85.0716 80.7011 85.0716 81.1532V82.4491L88.5638 79.5189L85.0716 76.5888V77.8847C85.0716 78.3364 84.6355 78.7018 84.0977 78.7018H39.2998C38.7625 78.7018 38.326 78.3364 38.326 77.8847V40.2973C38.326 39.846 38.7625 39.4802 39.2998 39.4802H40.8443L37.3521 36.55L33.8599 39.4802H35.4044C35.9422 39.4802 36.3783 39.846 36.3783 40.2973V80.3361Z" fill="black"/>
<path d="M49.0378 78.7024H43.1946C42.6572 78.7024 42.2207 78.3369 42.2207 77.8853V64.8113C42.2207 64.3592 42.6572 63.9941 43.1946 63.9941H49.0378C49.5756 63.9941 50.0117 64.3592 50.0117 64.8113V77.8853C50.0117 78.3369 49.5756 78.7024 49.0378 78.7024ZM44.1684 77.0681H48.0639V65.6284H44.1684V77.0681Z" fill="black"/>
<path d="M58.778 78.7012H52.9348C52.3975 78.7012 51.9609 78.3357 51.9609 77.884V66.4441C51.9609 65.992 52.3975 65.627 52.9348 65.627H58.778C59.3158 65.627 59.7519 65.992 59.7519 66.4441V77.884C59.7519 78.3357 59.3158 78.7012 58.778 78.7012ZM53.9087 77.0669H57.8041V67.2612H53.9087V77.0669Z" fill="black"/>
<path d="M68.5143 78.7009H62.6711C62.1338 78.7009 61.6973 78.3355 61.6973 77.8838V59.907C61.6973 59.4557 62.1338 59.0898 62.6711 59.0898H68.5143C69.0522 59.0898 69.4882 59.4557 69.4882 59.907V77.8838C69.4882 78.3355 69.0522 78.7009 68.5143 78.7009ZM63.645 77.0667H67.5405V60.7241H63.645V77.0667Z" fill="black"/>
<path d="M78.2546 78.7024H72.4114C71.874 78.7024 71.4375 78.3369 71.4375 77.8853V53.3718C71.4375 52.9206 71.874 52.5547 72.4114 52.5547H78.2546C78.7924 52.5547 79.2284 52.9206 79.2284 53.3718V77.8853C79.2284 78.3369 78.7924 78.7024 78.2546 78.7024ZM73.3852 77.0682H77.2807V54.1889H73.3852V77.0682Z" fill="black"/>
<path d="M43.7227 62.2295L42.6699 60.8554L56.304 53.5011C56.576 53.3539 56.917 53.3304 57.2147 53.4373L63.4535 55.6812L74.6763 47.049C74.8555 46.9106 75.09 46.834 75.3334 46.834H87.0198V48.4683H75.7124L64.3056 57.2417C64.0222 57.4591 63.6161 57.517 63.2633 57.3905L56.9218 55.1099L43.7227 62.2295Z" fill="black"/>
<path d="M83.8107 51.4971L82.4336 50.3416L85.6405 47.6509L82.4336 44.9601L83.8107 43.8047L87.7062 47.0732C88.0871 47.3927 88.0871 47.909 87.7062 48.2286L83.8107 51.4971Z" fill="black"/>
<path d="M86.7326 43.3276L85.3555 42.1721L88.5624 39.4812L85.3555 36.7903L86.7326 35.6348L90.6281 38.9034C91.009 39.223 91.009 39.7394 90.6281 40.059L86.7326 43.3276Z" fill="black"/>
<path d="M72.1251 41.6924L70.748 40.5369L73.9549 37.8462L70.748 35.1555L72.1251 34L76.0205 37.2685C76.4014 37.588 76.4014 38.1043 76.0205 38.4239L72.1251 41.6924Z" fill="black"/>
<path d="M55.8561 63.1772C55.6782 63.1772 55.5009 63.1354 55.3458 63.0564L42.6855 56.5194L43.7065 55.1277L55.4357 61.1843L68.6081 37.5009C68.7679 37.2132 69.1117 37.0293 69.4902 37.0293H75.3334V38.6635H70.1108L56.7396 62.7056C56.6217 62.9175 56.4024 63.0759 56.1366 63.1429C56.0444 63.1657 55.9497 63.1772 55.8561 63.1772Z" fill="black"/>
<path d="M43.6031 51.6624L42.7871 50.1782L55.4474 45.2757C55.6547 45.1951 55.8906 45.1788 56.1117 45.2294L66.3715 47.5769L80.6005 38.8217C80.7669 38.7195 80.9686 38.6641 81.1759 38.6641H89.9407V40.2982H81.4945L67.1438 49.1285C66.9041 49.2753 66.5974 49.322 66.3121 49.2574L55.9424 46.8847L43.6031 51.6624Z" fill="black"/>
</svg>
