<svg width="120" height="120" viewBox="0 0 120 120" fill="none" xmlns="http://www.w3.org/2000/svg">
<circle cx="60" cy="60" r="59" fill="white" stroke="#E0B543" stroke-width="2"/>
<path d="M67.5 48.75L80.625 45L74.0625 35.625L60 31.875L45.9375 35.625L39.375 45L52.5 48.75H67.5Z" fill="#D7EAFF"/>
<path d="M74.0625 35.625L60 40.3125L45.9375 35.625L60 31.875L74.0625 35.625Z" fill="#99CFFF"/>
<path d="M45.9375 35.625L60 40.3125L74.0625 35.625L67.5 48.75L60 40.3125L52.5 48.75L45.9375 35.625Z" fill="#C3E0FC"/>
<path d="M67.5 48.75L60 40.3125L52.5 48.75H67.5Z" fill="#A6D1FF"/>
<path d="M67.5 48.75H52.5L39.375 45L60 69.375L80.625 45L67.5 48.75Z" fill="#A6D1FF"/>
<path d="M60 69.375L52.5 48.75H67.5L60 69.375Z" fill="#D7EAFF"/>
<path d="M78.75 64.7737V62.8125C78.75 62.3152 78.5525 61.8383 78.2008 61.4867C77.8492 61.135 77.3723 60.9375 76.875 60.9375H76.7522C76.4951 60.9375 76.2408 60.9903 76.005 61.0927C75.7692 61.1951 75.557 61.3449 75.3816 61.5328L63.8213 73.9191C63.1729 74.6136 62.8124 75.5283 62.8125 76.4784V88.125H74.0625V84.0534C74.0625 83.5609 74.1595 83.0731 74.348 82.618C74.5366 82.163 74.8129 81.7495 75.1613 81.4012L82.5 74.0625L88.125 63.75V47.8125C88.125 47.0666 87.8287 46.3512 87.3012 45.8238C86.7738 45.2963 86.0584 45 85.3125 45C84.5666 45 83.8512 45.2963 83.3238 45.8238C82.7963 46.3512 82.5 47.0666 82.5 47.8125V60L78.75 64.7737Z" fill="#FBE1CA"/>
<path d="M41.25 64.7737V62.8125C41.25 62.3152 41.4475 61.8383 41.7992 61.4867C42.1508 61.135 42.6277 60.9375 43.125 60.9375H43.2478C43.5049 60.9375 43.7592 60.9903 43.995 61.0927C44.2308 61.1951 44.443 61.3449 44.6184 61.5328L56.1787 73.9191C56.8271 74.6136 57.1876 75.5283 57.1875 76.4784V88.125H45.9375V84.0534C45.9375 83.5609 45.8405 83.0731 45.652 82.618C45.4634 82.163 45.1871 81.7495 44.8387 81.4012L37.5 74.0625L31.875 63.75V47.8125C31.875 47.0666 32.1713 46.3512 32.6988 45.8238C33.2262 45.2963 33.9416 45 34.6875 45C35.4334 45 36.1488 45.2963 36.6762 45.8238C37.2037 46.3512 37.5 47.0666 37.5 47.8125V60L41.25 64.7737Z" fill="#FBE1CA"/>
<path d="M60 56.25C65.1777 56.25 69.375 52.0527 69.375 46.875C69.375 41.6973 65.1777 37.5 60 37.5C54.8223 37.5 50.625 41.6973 50.625 46.875C50.625 52.0527 54.8223 56.25 60 56.25Z" fill="#F0AE42"/>
<path d="M67.4998 45.9372C67.5001 44.3775 67.1107 42.8425 66.3669 41.4716C65.6231 40.1007 64.5485 38.9375 63.2408 38.0875C61.0796 37.2876 58.6993 37.3125 56.5553 38.1574C54.4113 39.0024 52.6541 40.6081 51.6197 42.6674C50.5853 44.7267 50.3463 47.095 50.9485 49.3194C51.5508 51.5438 52.9519 53.4682 54.8839 54.7244C56.3002 55.2517 57.8231 55.428 59.3224 55.2381C60.8217 55.0482 62.2526 54.4979 63.4927 53.6341C64.7328 52.7704 65.7451 51.619 66.443 50.2785C67.1409 48.938 67.5035 47.4484 67.4998 45.9372Z" fill="#F9D266"/>
<path d="M64.6875 45V43.125C64.6875 42.3791 64.3912 41.6637 63.8637 41.1363C63.3363 40.6088 62.6209 40.3125 61.875 40.3125H60.9375V39.375H59.0625V40.3125H58.125C57.3791 40.3125 56.6637 40.6088 56.1363 41.1363C55.6088 41.6637 55.3125 42.3791 55.3125 43.125V45C55.3125 45.7459 55.6088 46.4613 56.1363 46.9887C56.6637 47.5162 57.3791 47.8125 58.125 47.8125H59.0625V51.5625H58.125C57.8764 51.5625 57.6379 51.4637 57.4621 51.2879C57.2863 51.1121 57.1875 50.8736 57.1875 50.625V48.75H55.3125V50.625C55.3125 51.3709 55.6088 52.0863 56.1363 52.6137C56.6637 53.1412 57.3791 53.4375 58.125 53.4375H59.0625V54.375H60.9375V53.4375H61.875C62.6209 53.4375 63.3363 53.1412 63.8637 52.6137C64.3912 52.0863 64.6875 51.3709 64.6875 50.625V48.75C64.6875 48.0041 64.3912 47.2887 63.8637 46.7613C63.3363 46.2338 62.6209 45.9375 61.875 45.9375H60.9375V42.1875H61.875C62.1236 42.1875 62.3621 42.2863 62.5379 42.4621C62.7137 42.6379 62.8125 42.8764 62.8125 43.125V45H64.6875ZM61.875 47.8125C62.1236 47.8125 62.3621 47.9113 62.5379 48.0871C62.7137 48.2629 62.8125 48.5014 62.8125 48.75V50.625C62.8125 50.8736 62.7137 51.1121 62.5379 51.2879C62.3621 51.4637 62.1236 51.5625 61.875 51.5625H60.9375V47.8125H61.875ZM59.0625 45.9375H58.125C57.8764 45.9375 57.6379 45.8387 57.4621 45.6629C57.2863 45.4871 57.1875 45.2486 57.1875 45V43.125C57.1875 42.8764 57.2863 42.6379 57.4621 42.4621C57.6379 42.2863 57.8764 42.1875 58.125 42.1875H59.0625V45.9375Z" fill="#FCE797"/>
<path d="M59.0625 39.375V40.3125H58.125C57.3791 40.3125 56.6637 40.6088 56.1363 41.1363C55.6088 41.6637 55.3125 42.3791 55.3125 43.125V45C55.3125 45.7459 55.6088 46.4613 56.1363 46.9887C56.6637 47.5162 57.3791 47.8125 58.125 47.8125H59.0625V51.5625H58.125C57.8764 51.5625 57.6379 51.4637 57.4621 51.2879C57.2863 51.1121 57.1875 50.8736 57.1875 50.625V48.75H55.3125V50.625C55.3125 51.3709 55.6088 52.0863 56.1363 52.6137C56.6637 53.1412 57.3791 53.4375 58.125 53.4375H59.0625V54.375H60.9375V53.4375H61.875C62.6209 53.4375 63.3363 53.1412 63.8637 52.6137C64.3912 52.0863 64.6875 51.3709 64.6875 50.625V48.75C64.6875 48.0041 64.3912 47.2887 63.8637 46.7613C63.3363 46.2338 62.6209 45.9375 61.875 45.9375H60.9375V42.1875H61.875C62.1236 42.1875 62.3621 42.2863 62.5379 42.4621C62.7137 42.6379 62.8125 42.8764 62.8125 43.125V45H64.6875V43.125C64.6875 42.3791 64.3912 41.6637 63.8637 41.1363C63.3363 40.6088 62.6209 40.3125 61.875 40.3125H60.9375V39.375H59.0625ZM61.875 47.8125C62.1236 47.8125 62.3621 47.9113 62.5379 48.0871C62.7137 48.2629 62.8125 48.5014 62.8125 48.75V50.625C62.8125 50.8736 62.7137 51.1121 62.5379 51.2879C62.3621 51.4637 62.1236 51.5625 61.875 51.5625H60.9375V47.8125H61.875ZM59.0625 45.9375H58.125C57.8764 45.9375 57.6379 45.8387 57.4621 45.6629C57.2863 45.4871 57.1875 45.2486 57.1875 45V43.125C57.1875 42.8764 57.2863 42.6379 57.4621 42.4621C57.6379 42.2863 57.8764 42.1875 58.125 42.1875H59.0625V45.9375Z" fill="black"/>
<path d="M81.3924 44.462L74.8299 35.087C74.7038 34.9057 74.5174 34.7751 74.3039 34.7186L60.2414 30.9686C60.083 30.9263 59.9162 30.9263 59.7577 30.9686L45.6952 34.7186C45.4817 34.7751 45.2953 34.9057 45.1693 35.087L38.6068 44.462C38.4882 44.6316 38.429 44.8357 38.4385 45.0424C38.448 45.2491 38.5256 45.4469 38.6593 45.6048L59.2843 69.9798C59.3723 70.0837 59.4818 70.1672 59.6054 70.2244C59.7289 70.2817 59.8634 70.3114 59.9996 70.3114C60.1357 70.3114 60.2702 70.2817 60.3938 70.2244C60.5173 70.1672 60.6269 70.0837 60.7149 69.9798L81.3399 45.6048C81.4735 45.4469 81.5512 45.2491 81.5607 45.0424C81.5702 44.8357 81.511 44.6316 81.3924 44.462ZM70.2005 45.4436L74.1971 37.4514L79.1021 44.4592L70.3121 46.9727C70.3121 46.9389 70.3168 46.907 70.3168 46.8742C70.3114 46.3952 70.2725 45.9172 70.2005 45.4436ZM69.4505 42.7558C68.827 41.3353 67.8925 40.073 66.7158 39.062L72.2143 37.2292L69.4505 42.7558ZM68.4371 46.8742C68.4371 48.543 67.9422 50.1743 67.0151 51.5618C66.088 52.9494 64.7702 54.0308 63.2285 54.6695C61.6867 55.3081 59.9902 55.4752 58.3535 55.1496C56.7168 54.824 55.2134 54.0204 54.0334 52.8404C52.8534 51.6604 52.0498 50.157 51.7242 48.5203C51.3986 46.8836 51.5657 45.1871 52.2043 43.6453C52.843 42.1036 53.9244 40.7858 55.312 39.8587C56.6995 38.9316 58.3308 38.4367 59.9996 38.4367C62.2365 38.4395 64.381 39.3293 65.9628 40.911C67.5445 42.4928 68.4343 44.6373 68.4371 46.8742ZM63.6858 56.4939L59.9996 66.6302L56.3133 56.4939C58.684 57.4177 61.3151 57.4177 63.6858 56.4939ZM50.5514 42.7558L47.7877 37.2292L53.2861 39.062C52.1095 40.073 51.1749 41.3353 50.5514 42.7558ZM49.8014 45.4436C49.7301 45.9172 49.6918 46.3953 49.6871 46.8742V46.9727L40.8924 44.4592L45.7974 37.4514L49.8014 45.4436ZM49.9083 48.9836C50.4251 51.4297 51.8122 53.6051 53.8121 55.1055L57.323 64.7617L42.0821 46.7477L49.9083 48.9836ZM66.1871 55.1055C68.1883 53.6057 69.5769 51.4303 70.0946 48.9836L77.918 46.7477L62.6752 64.7608L66.1871 55.1055ZM59.9996 32.8445L70.7977 35.7236L64.7611 37.7364C63.2926 36.9648 61.6585 36.5617 59.9996 36.5617C58.3407 36.5617 56.7066 36.9648 55.238 37.7364L49.2014 35.7236L59.9996 32.8445Z" fill="black"/>
<path d="M85.3125 44.0625C84.3179 44.0625 83.3641 44.4576 82.6609 45.1609C81.9576 45.8641 81.5625 46.8179 81.5625 47.8125V59.6756L79.6106 62.1562C79.4632 61.5418 79.1131 60.9948 78.6168 60.6037C78.1205 60.2125 77.5069 59.9998 76.875 60H76.7522C76.3667 60.0006 75.9853 60.0802 75.6317 60.2339C75.2781 60.3875 74.9598 60.612 74.6963 60.8934L63.1359 73.2797C62.3244 74.147 61.8736 75.2907 61.875 76.4784V88.125C61.875 88.3736 61.9738 88.6121 62.1496 88.7879C62.3254 88.9637 62.5639 89.0625 62.8125 89.0625H74.0625C74.3111 89.0625 74.5496 88.9637 74.7254 88.7879C74.9012 88.6121 75 88.3736 75 88.125V84.0534C75.002 83.3081 75.2977 82.5936 75.8231 82.065L83.1628 74.7253C83.2259 74.6618 83.2799 74.5899 83.3231 74.5116L88.9481 64.1991C89.0232 64.0613 89.0626 63.9069 89.0625 63.75V47.8125C89.0625 46.8179 88.6674 45.8641 87.9642 45.1609C87.2609 44.4576 86.3071 44.0625 85.3125 44.0625ZM87.1875 63.5109L81.7416 73.5L74.4975 80.7441C74.0615 81.1777 73.7157 81.6934 73.4802 82.2614C73.2446 82.8295 73.1239 83.4385 73.125 84.0534V87.1875H63.75V76.4784C63.7492 75.7656 64.0197 75.0791 64.5066 74.5584L76.0678 62.1722C76.1555 62.0784 76.2615 62.0037 76.3792 61.9526C76.4969 61.9015 76.6239 61.8751 76.7522 61.875H76.875C77.1236 61.875 77.3621 61.9738 77.5379 62.1496C77.7137 62.3254 77.8125 62.5639 77.8125 62.8125V64.4484L71.4506 72.5456L72.9244 73.7044L83.2369 60.5794C83.3668 60.4142 83.4375 60.2102 83.4375 60V47.8125C83.4375 47.3152 83.6351 46.8383 83.9867 46.4867C84.3383 46.135 84.8152 45.9375 85.3125 45.9375C85.8098 45.9375 86.2867 46.135 86.6383 46.4867C86.99 46.8383 87.1875 47.3152 87.1875 47.8125V63.5109Z" fill="black"/>
<path d="M45.3038 60.8934C45.0402 60.612 44.7219 60.3875 44.3683 60.2339C44.0147 60.0802 43.6334 60.0006 43.2478 60H43.125C42.4931 59.9998 41.8795 60.2125 41.3832 60.6037C40.8869 60.9948 40.5368 61.5418 40.3894 62.1562L38.4375 59.6756V47.8125C38.4375 46.8179 38.0424 45.8641 37.3392 45.1609C36.6359 44.4576 35.6821 44.0625 34.6875 44.0625C33.6929 44.0625 32.7391 44.4576 32.0358 45.1609C31.3326 45.8641 30.9375 46.8179 30.9375 47.8125V63.75C30.9374 63.9069 30.9768 64.0613 31.0519 64.1991L36.6769 74.5116C36.7202 74.5899 36.7741 74.6618 36.8372 74.7253L44.1769 82.065C44.7023 82.5936 44.998 83.3081 45 84.0534V88.125C45 88.3736 45.0988 88.6121 45.2746 88.7879C45.4504 88.9637 45.6889 89.0625 45.9375 89.0625H57.1875C57.4361 89.0625 57.6746 88.9637 57.8504 88.7879C58.0262 88.6121 58.125 88.3736 58.125 88.125V76.4784C58.1264 75.2907 57.6756 74.147 56.8641 73.2797L45.3038 60.8934ZM56.25 87.1875H46.875V84.0534C46.8767 83.4377 46.7563 82.8278 46.5207 82.2589C46.2851 81.6901 45.9391 81.1736 45.5025 80.7394L38.2584 73.5L32.8125 63.5109V47.8125C32.8125 47.3152 33.01 46.8383 33.3617 46.4867C33.7133 46.135 34.1902 45.9375 34.6875 45.9375C35.1848 45.9375 35.6617 46.135 36.0133 46.4867C36.365 46.8383 36.5625 47.3152 36.5625 47.8125V60C36.5625 60.2102 36.6332 60.4142 36.7631 60.5794L47.0756 73.7044L48.5494 72.5456L42.1875 64.4484V62.8125C42.1875 62.5639 42.2863 62.3254 42.4621 62.1496C42.6379 61.9738 42.8764 61.875 43.125 61.875H43.2478C43.3763 61.8753 43.5033 61.9018 43.6211 61.9529C43.7389 62.004 43.8451 62.0786 43.9331 62.1722L55.4934 74.5584C55.9803 75.0791 56.2508 75.7656 56.25 76.4784V87.1875Z" fill="black"/>
</svg>
