<svg width="24" height="21" viewBox="0 0 24 21" fill="none" xmlns="http://www.w3.org/2000/svg">
<path d="M10.194 15.648C10.194 17.184 9.72467 18.3573 8.786 19.168C7.84733 19.936 6.802 20.32 5.65 20.32C4.45533 20.32 3.346 19.8933 2.322 19.04C1.34067 18.144 0.85 16.8213 0.85 15.072C0.85 13.4507 1.426 11.424 2.578 8.992C3.73 6.56 5.714 3.808 8.53 0.735996L11.538 2.72C10.258 4.896 9.40467 6.56 8.978 7.712C8.55133 8.82133 8.338 9.632 8.338 10.144C8.338 10.7413 8.48733 11.296 8.786 11.808C9.08467 12.2773 9.38333 12.8107 9.682 13.408C10.0233 14.0053 10.194 14.752 10.194 15.648ZM22.29 15.648C22.29 17.184 21.8207 18.3573 20.882 19.168C19.9433 19.936 18.898 20.32 17.746 20.32C16.594 20.32 15.506 19.8933 14.482 19.04C13.5007 18.144 13.01 16.8213 13.01 15.072C13.01 13.4507 13.5647 11.424 14.674 8.992C15.826 6.56 17.81 3.808 20.626 0.735996L23.634 2.72C22.3967 4.896 21.5433 6.56 21.074 7.712C20.6473 8.82133 20.434 9.632 20.434 10.144C20.434 10.7413 20.5833 11.296 20.882 11.808C21.2233 12.2773 21.5433 12.8107 21.842 13.408C22.1407 14.0053 22.29 14.752 22.29 15.648Z" fill="black"/>
</svg>
