<svg width="60" height="60" viewBox="0 0 60 60" fill="none" xmlns="http://www.w3.org/2000/svg">
<path d="M58.3684 44.034L49.9952 35.6608C47.0048 32.6704 41.9211 33.8666 40.7249 37.7541C39.8278 40.4456 36.8374 41.9408 34.146 41.3426C28.1652 39.8474 20.091 32.0723 18.5958 25.7924C17.6987 23.1009 19.4929 20.1105 22.1843 19.2135C26.0719 18.0173 27.268 12.9336 24.2776 9.94315L15.9044 1.56997C13.5121 -0.523324 9.92359 -0.523324 7.8303 1.56997L2.1485 7.25177C-3.5333 13.2326 2.74658 29.0818 16.8016 43.1368C30.8565 57.1918 46.7058 63.7709 52.6866 57.7899L58.3684 52.1081C60.4618 49.7158 60.4618 46.1272 58.3684 44.034Z" fill="#F8D065"/>
</svg>
